<mxfile host="app.diagrams.net" agent="Mozilla/5.0 (Windows NT 10.0; Win64; x64) AppleWebKit/537.36 (KHTML, like Gecko) Chrome/129.0.0.0 Safari/537.36" version="24.7.16">
  <diagram name="Page-1" id="NMN3HdXqNhA2N6YGjnFO">
    <mxGraphModel dx="1050" dy="557" grid="1" gridSize="10" guides="1" tooltips="1" connect="1" arrows="1" fold="1" page="1" pageScale="1" pageWidth="850" pageHeight="1100" math="0" shadow="0">
      <root>
        <mxCell id="0" />
        <mxCell id="1" parent="0" />
        <mxCell id="eymiVmar5DGtGDkxs6qB-1" value="&lt;p style=&quot;margin:0px;margin-top:4px;margin-left:5px;text-align:left;&quot;&gt;interaction Payment&lt;/p&gt;" style="html=1;shape=mxgraph.sysml.package;overflow=fill;labelX=201;align=left;spacingLeft=5;verticalAlign=top;spacingTop=-3;" parent="1" vertex="1">
          <mxGeometry x="10" y="50" width="830" height="1120" as="geometry" />
        </mxCell>
        <mxCell id="eymiVmar5DGtGDkxs6qB-2" value="&lt;u&gt;:PaymentUI&lt;/u&gt;" style="rounded=0;whiteSpace=wrap;html=1;" parent="1" vertex="1">
          <mxGeometry x="320" y="210" width="130" height="80" as="geometry" />
        </mxCell>
        <mxCell id="eymiVmar5DGtGDkxs6qB-3" value="" style="shape=umlBoundary;whiteSpace=wrap;html=1;" parent="1" vertex="1">
          <mxGeometry x="413" y="220" width="24" height="20" as="geometry" />
        </mxCell>
        <mxCell id="eymiVmar5DGtGDkxs6qB-5" value="" style="endArrow=classic;html=1;rounded=0;entryX=0.408;entryY=0.129;entryDx=0;entryDy=0;entryPerimeter=0;" parent="1" edge="1">
          <mxGeometry width="50" height="50" relative="1" as="geometry">
            <mxPoint x="120" y="240" as="sourcePoint" />
            <mxPoint x="280.0799999999999" y="240.28999999999996" as="targetPoint" />
          </mxGeometry>
        </mxCell>
        <mxCell id="eymiVmar5DGtGDkxs6qB-7" value="&lt;u&gt;:PaymentController&lt;/u&gt;" style="rounded=0;whiteSpace=wrap;html=1;" parent="1" vertex="1">
          <mxGeometry x="650" y="460" width="130" height="80" as="geometry" />
        </mxCell>
        <mxCell id="eymiVmar5DGtGDkxs6qB-8" value="" style="endArrow=none;html=1;rounded=0;entryX=1;entryY=0.5;entryDx=0;entryDy=0;exitX=0.385;exitY=0;exitDx=0;exitDy=0;exitPerimeter=0;" parent="1" source="eymiVmar5DGtGDkxs6qB-7" target="eymiVmar5DGtGDkxs6qB-2" edge="1">
          <mxGeometry width="50" height="50" relative="1" as="geometry">
            <mxPoint x="620" y="280" as="sourcePoint" />
            <mxPoint x="430" y="279.40999999999997" as="targetPoint" />
          </mxGeometry>
        </mxCell>
        <mxCell id="eymiVmar5DGtGDkxs6qB-13" value="&lt;u&gt;:BookingDatabase&lt;/u&gt;" style="rounded=0;whiteSpace=wrap;html=1;" parent="1" vertex="1">
          <mxGeometry x="170" y="810" width="130" height="80" as="geometry" />
        </mxCell>
        <mxCell id="eymiVmar5DGtGDkxs6qB-14" value="" style="endArrow=none;html=1;rounded=0;entryX=0.75;entryY=1;entryDx=0;entryDy=0;exitX=1;exitY=0.5;exitDx=0;exitDy=0;" parent="1" source="eymiVmar5DGtGDkxs6qB-13" target="eymiVmar5DGtGDkxs6qB-7" edge="1">
          <mxGeometry width="50" height="50" relative="1" as="geometry">
            <mxPoint x="490" y="630" as="sourcePoint" />
            <mxPoint x="470" y="410" as="targetPoint" />
          </mxGeometry>
        </mxCell>
        <mxCell id="eymiVmar5DGtGDkxs6qB-19" value="" style="ellipse;shape=umlEntity;whiteSpace=wrap;html=1;" parent="1" vertex="1">
          <mxGeometry x="270" y="820" width="20" height="20" as="geometry" />
        </mxCell>
        <mxCell id="eymiVmar5DGtGDkxs6qB-21" value="Registered User" style="shape=umlActor;html=1;verticalLabelPosition=bottom;verticalAlign=top;align=center;" parent="1" vertex="1">
          <mxGeometry x="50" y="215" width="30" height="60" as="geometry" />
        </mxCell>
        <mxCell id="eymiVmar5DGtGDkxs6qB-41" value="" style="endArrow=none;html=1;rounded=0;entryX=0;entryY=0.5;entryDx=0;entryDy=0;exitX=0.108;exitY=0.188;exitDx=0;exitDy=0;exitPerimeter=0;" parent="1" source="eymiVmar5DGtGDkxs6qB-1" target="eymiVmar5DGtGDkxs6qB-2" edge="1">
          <mxGeometry width="50" height="50" relative="1" as="geometry">
            <mxPoint x="490" y="330" as="sourcePoint" />
            <mxPoint x="540" y="280" as="targetPoint" />
          </mxGeometry>
        </mxCell>
        <mxCell id="eymiVmar5DGtGDkxs6qB-42" value="3.0 : Enter online Trasaction Detail()&lt;div&gt;2.0 : Enter Card Details()&lt;/div&gt;&lt;div&gt;1.0 : Request Payment Details()&lt;/div&gt;" style="text;html=1;align=center;verticalAlign=middle;whiteSpace=wrap;rounded=0;" parent="1" vertex="1">
          <mxGeometry x="90" y="190" width="220" height="30" as="geometry" />
        </mxCell>
        <mxCell id="eymiVmar5DGtGDkxs6qB-43" value="" style="endArrow=classic;html=1;rounded=0;entryX=0.783;entryY=0.321;entryDx=0;entryDy=0;entryPerimeter=0;" parent="1" target="eymiVmar5DGtGDkxs6qB-1" edge="1">
          <mxGeometry width="50" height="50" relative="1" as="geometry">
            <mxPoint x="489.92" y="254.41" as="sourcePoint" />
            <mxPoint x="650" y="254.69999999999996" as="targetPoint" />
          </mxGeometry>
        </mxCell>
        <mxCell id="eymiVmar5DGtGDkxs6qB-44" value="&lt;div&gt;3.1 : Online Transaction()&lt;/div&gt;&lt;div&gt;2.1 : Pay with Card()&lt;/div&gt;1.1 Request Payment details()" style="text;html=1;align=center;verticalAlign=middle;whiteSpace=wrap;rounded=0;" parent="1" vertex="1">
          <mxGeometry x="540" y="275" width="220" height="30" as="geometry" />
        </mxCell>
        <mxCell id="eymiVmar5DGtGDkxs6qB-45" value="&lt;div&gt;&lt;span style=&quot;background-color: initial;&quot;&gt;1.2 : Send Payment Details()&lt;/span&gt;&lt;br&gt;&lt;/div&gt;&lt;div&gt;&lt;span style=&quot;background-color: initial;&quot;&gt;2.2 [ if Successful] : display payment success()&amp;nbsp;&lt;/span&gt;&lt;/div&gt;&lt;div&gt;&lt;span style=&quot;background-color: initial;&quot;&gt;2.2*[ if unsuccessful] : error message()&lt;/span&gt;&lt;/div&gt;&lt;div&gt;3.2 : Display Payment success&lt;/div&gt;&lt;div&gt;&lt;/div&gt;" style="text;html=1;align=center;verticalAlign=middle;whiteSpace=wrap;rounded=0;" parent="1" vertex="1">
          <mxGeometry x="280" y="370" width="270" height="30" as="geometry" />
        </mxCell>
        <mxCell id="eymiVmar5DGtGDkxs6qB-46" value="" style="endArrow=classic;html=1;rounded=0;entryX=0.566;entryY=0.241;entryDx=0;entryDy=0;entryPerimeter=0;exitX=0.747;exitY=0.357;exitDx=0;exitDy=0;exitPerimeter=0;" parent="1" edge="1">
          <mxGeometry width="50" height="50" relative="1" as="geometry">
            <mxPoint x="620.2300000000002" y="419.9199999999999" as="sourcePoint" />
            <mxPoint x="469.9999999999998" y="289.99999999999994" as="targetPoint" />
          </mxGeometry>
        </mxCell>
        <mxCell id="eymiVmar5DGtGDkxs6qB-49" value="" style="ellipse;shape=umlControl;whiteSpace=wrap;html=1;" parent="1" vertex="1">
          <mxGeometry x="750" y="470" width="20" height="20" as="geometry" />
        </mxCell>
        <mxCell id="eymiVmar5DGtGDkxs6qB-50" value="" style="endArrow=classic;html=1;rounded=0;exitX=0.386;exitY=0.679;exitDx=0;exitDy=0;exitPerimeter=0;entryX=0.735;entryY=0.5;entryDx=0;entryDy=0;entryPerimeter=0;" parent="1" edge="1">
          <mxGeometry width="50" height="50" relative="1" as="geometry">
            <mxPoint x="350.0000000000001" y="790.48" as="sourcePoint" />
            <mxPoint x="639.67" y="590" as="targetPoint" />
          </mxGeometry>
        </mxCell>
        <mxCell id="eymiVmar5DGtGDkxs6qB-51" value="" style="endArrow=classic;html=1;rounded=0;exitX=0.386;exitY=0.679;exitDx=0;exitDy=0;exitPerimeter=0;entryX=0.735;entryY=0.5;entryDx=0;entryDy=0;entryPerimeter=0;" parent="1" edge="1">
          <mxGeometry width="50" height="50" relative="1" as="geometry">
            <mxPoint x="659.67" y="619.52" as="sourcePoint" />
            <mxPoint x="370.0000000000001" y="820" as="targetPoint" />
          </mxGeometry>
        </mxCell>
        <mxCell id="eymiVmar5DGtGDkxs6qB-52" value="1.1.1 : Request Payment Details()&lt;div&gt;&lt;/div&gt;&lt;div&gt;2.1.1 : Update Payment()&lt;/div&gt;&lt;div&gt;3.1.1 : Update Payment ()&lt;/div&gt;" style="text;html=1;align=center;verticalAlign=middle;whiteSpace=wrap;rounded=0;" parent="1" vertex="1">
          <mxGeometry x="500" y="740" width="220" height="30" as="geometry" />
        </mxCell>
        <mxCell id="eymiVmar5DGtGDkxs6qB-53" value="1.1.2 : send payment details()&lt;div&gt;2.1.2 : Confirm Payment()&lt;/div&gt;&lt;div&gt;3.1.2 : confirm Payment ()&lt;/div&gt;" style="text;html=1;align=center;verticalAlign=middle;whiteSpace=wrap;rounded=0;" parent="1" vertex="1">
          <mxGeometry x="300" y="640" width="220" height="30" as="geometry" />
        </mxCell>
      </root>
    </mxGraphModel>
  </diagram>
</mxfile>
